<mxfile host="65bd71144e">
    <diagram id="y7LyX2alFGtX07KHJ8K6" name="Page-1">
        <mxGraphModel dx="755" dy="518" grid="1" gridSize="10" guides="1" tooltips="1" connect="1" arrows="1" fold="1" page="1" pageScale="1" pageWidth="850" pageHeight="1100" math="0" shadow="0">
            <root>
                <mxCell id="0"/>
                <mxCell id="1" parent="0"/>
                <mxCell id="4" style="edgeStyle=none;html=1;entryX=0.5;entryY=0;entryDx=0;entryDy=0;" parent="1" source="2" target="71" edge="1">
                    <mxGeometry relative="1" as="geometry">
                        <mxPoint x="809.2800000000001" y="124" as="targetPoint"/>
                    </mxGeometry>
                </mxCell>
                <mxCell id="70" value="isTrue«${scope.config_milvus}==true &#10;&amp;&amp; ${scope.config_mongo}==true &#10;&amp;&amp; ${scope.config_postgres}==true &#10;&amp;&amp; ${scope.config_meta}==true»" style="edgeLabel;align=center;verticalAlign=middle;resizable=0;points=[];fontColor=#FFFFFF;fontSize=12;" parent="4" vertex="1" connectable="0">
                    <mxGeometry x="-0.2746" y="-2" relative="1" as="geometry">
                        <mxPoint x="2" y="7" as="offset"/>
                    </mxGeometry>
                </mxCell>
                <mxCell id="146" style="edgeStyle=none;html=1;" parent="1" source="2" target="145" edge="1">
                    <mxGeometry relative="1" as="geometry"/>
                </mxCell>
                <mxCell id="147" value="isTrue«${args.use_plate}!==true»" style="edgeLabel;align=center;verticalAlign=middle;resizable=0;points=[];fontSize=12;" parent="146" vertex="1" connectable="0">
                    <mxGeometry x="0.1528" y="-1" relative="1" as="geometry">
                        <mxPoint x="-18" y="-1" as="offset"/>
                    </mxGeometry>
                </mxCell>
                <mxCell id="2" value="start" style="ellipse;whiteSpace=wrap;html=1;fillColor=#b0e3e6;strokeColor=#0e8088;fontColor=#050505;" parent="1" vertex="1">
                    <mxGeometry x="789.78" y="10" width="40" height="40" as="geometry"/>
                </mxCell>
                <mxCell id="6" style="edgeStyle=none;html=1;exitX=0.5;exitY=1;exitDx=0;exitDy=0;" parent="1" source="16" target="133" edge="1">
                    <mxGeometry relative="1" as="geometry">
                        <mxPoint x="841.5699999999999" y="924.5" as="sourcePoint"/>
                        <mxPoint x="580.56" y="966.5600000000002" as="targetPoint"/>
                    </mxGeometry>
                </mxCell>
                <mxCell id="19" value="timelineEnds«&quot;timelinePlate&quot;»" style="edgeLabel;align=center;verticalAlign=middle;resizable=0;points=[];fontSize=12;" parent="6" vertex="1" connectable="0">
                    <mxGeometry x="-0.2424" y="1" relative="1" as="geometry">
                        <mxPoint as="offset"/>
                    </mxGeometry>
                </mxCell>
                <mxCell id="5" value="ok" style="ellipse;whiteSpace=wrap;html=1;fillColor=#dae8fc;strokeColor=#6c8ebf;fontColor=#0D0D0D;" parent="1" vertex="1">
                    <mxGeometry x="559.9999999999999" y="1044.5" width="40" height="40" as="geometry"/>
                </mxCell>
                <mxCell id="74" style="edgeStyle=none;html=1;" parent="1" source="8" target="95" edge="1">
                    <mxGeometry relative="1" as="geometry">
                        <mxPoint x="809.79" y="234" as="targetPoint"/>
                    </mxGeometry>
                </mxCell>
                <mxCell id="8" value="timelineNext«&quot;timelinePlate&quot;»" style="rounded=1;whiteSpace=wrap;fillColor=#ffff88;strokeColor=#36393d;fontColor=#000000;" parent="1" vertex="1">
                    <mxGeometry x="693.64" y="192" width="232.29" height="30" as="geometry"/>
                </mxCell>
                <mxCell id="22" style="edgeStyle=none;html=1;entryX=1;entryY=0.5;entryDx=0;entryDy=0;fontSize=12;" parent="1" source="16" target="8" edge="1">
                    <mxGeometry relative="1" as="geometry">
                        <Array as="points">
                            <mxPoint x="1980" y="905"/>
                            <mxPoint x="1980" y="210"/>
                        </Array>
                    </mxGeometry>
                </mxCell>
                <mxCell id="23" value="timelineHasMore«&quot;timelinePlate&quot;»" style="edgeLabel;align=center;verticalAlign=middle;resizable=0;points=[];fontSize=12;" parent="22" vertex="1" connectable="0">
                    <mxGeometry x="0.1347" y="2" relative="1" as="geometry">
                        <mxPoint x="12" y="-96" as="offset"/>
                    </mxGeometry>
                </mxCell>
                <mxCell id="16" value="" style="ellipse;whiteSpace=wrap;html=1;fillColor=#CDEB8B;strokeColor=#0e8088;fontColor=#050505;" parent="1" vertex="1">
                    <mxGeometry x="560.56" y="884.5" width="40" height="40" as="geometry"/>
                </mxCell>
                <mxCell id="72" style="edgeStyle=none;html=1;fontColor=#FFFFFF;" parent="1" source="71" target="8" edge="1">
                    <mxGeometry relative="1" as="geometry"/>
                </mxCell>
                <mxCell id="71" value="mongo«&quot;write&quot;;&#10;&quot;dbnotes&quot;;&quot;collection_document&quot;;&quot;metadata.videoMeta&quot;»" style="rounded=1;whiteSpace=wrap;fillColor=#eeeeee;strokeColor=#36393d;fontColor=#000000;" parent="1" vertex="1">
                    <mxGeometry x="624.78" y="131" width="370" height="42" as="geometry"/>
                </mxCell>
                <mxCell id="77" style="edgeStyle=none;html=1;entryX=0.5;entryY=0;entryDx=0;entryDy=0;" parent="1" source="95" target="99" edge="1">
                    <mxGeometry relative="1" as="geometry">
                        <Array as="points">
                            <mxPoint x="708" y="264"/>
                        </Array>
                        <mxPoint x="707.8399999999999" y="284" as="sourcePoint"/>
                        <mxPoint x="809.79" y="330" as="targetPoint"/>
                    </mxGeometry>
                </mxCell>
                <mxCell id="78" value="process«&quot;localFiles3.read&quot;»" style="edgeLabel;align=center;verticalAlign=middle;resizable=0;points=[];fontSize=12;" parent="77" vertex="1" connectable="0">
                    <mxGeometry x="0.19" y="1" relative="1" as="geometry">
                        <mxPoint x="-1" y="8" as="offset"/>
                    </mxGeometry>
                </mxCell>
                <mxCell id="124" style="edgeStyle=none;html=1;fontSize=12;entryX=0.5;entryY=0;entryDx=0;entryDy=0;" parent="1" source="84" target="136" edge="1">
                    <mxGeometry relative="1" as="geometry">
                        <mxPoint x="429.28" y="738.5" as="targetPoint"/>
                        <Array as="points">
                            <mxPoint x="524" y="704.5"/>
                            <mxPoint x="580" y="704.5"/>
                        </Array>
                    </mxGeometry>
                </mxCell>
                <mxCell id="84" value="minio«&quot;write&quot;;&#10;&quot;${minio.bucket}&quot;;&quot;${indexPlateResult.path}&quot;;&#10;&quot;b.localFiles.imagePlate&quot;;&#10;(${minio.metadata})»" style="rounded=1;whiteSpace=wrap;fillColor=#ffff88;strokeColor=#36393d;fontColor=#000000;" parent="1" vertex="1">
                    <mxGeometry x="380" y="614.5" width="288.06" height="71.43" as="geometry"/>
                </mxCell>
                <mxCell id="140" style="edgeStyle=none;html=1;entryX=0.5;entryY=0;entryDx=0;entryDy=0;" parent="1" source="86" target="136" edge="1">
                    <mxGeometry relative="1" as="geometry">
                        <Array as="points">
                            <mxPoint x="819" y="704.5"/>
                            <mxPoint x="580" y="704.5"/>
                        </Array>
                    </mxGeometry>
                </mxCell>
                <mxCell id="86" value="mongo«&quot;write&quot;;&#10;&quot;dbtemp&quot;;&quot;collection_plates&quot;;&#10;&quot;indexPlateResult.plates&quot;»" style="rounded=1;whiteSpace=wrap;fillColor=#ffff88;strokeColor=#36393d;fontColor=#000000;" parent="1" vertex="1">
                    <mxGeometry x="693.64" y="614.5" width="250" height="57.14" as="geometry"/>
                </mxCell>
                <mxCell id="95" value="" style="ellipse;whiteSpace=wrap;html=1;fillColor=#b0e3e6;strokeColor=#0e8088;fontColor=#050505;" parent="1" vertex="1">
                    <mxGeometry x="789.79" y="244" width="40" height="40" as="geometry"/>
                </mxCell>
                <mxCell id="103" style="edgeStyle=none;html=1;fontSize=12;entryX=0.5;entryY=0;entryDx=0;entryDy=0;" parent="1" source="99" target="112" edge="1">
                    <mxGeometry relative="1" as="geometry">
                        <mxPoint x="708" y="474" as="targetPoint"/>
                    </mxGeometry>
                </mxCell>
                <mxCell id="104" value="process«&quot;frameExtractor1.indexPlate&quot;»" style="edgeLabel;align=center;verticalAlign=middle;resizable=0;points=[];fontSize=12;" parent="103" vertex="1" connectable="0">
                    <mxGeometry x="-0.3777" y="-1" relative="1" as="geometry">
                        <mxPoint x="1" y="18" as="offset"/>
                    </mxGeometry>
                </mxCell>
                <mxCell id="99" value="" style="ellipse;whiteSpace=wrap;html=1;fillColor=#b0e3e6;strokeColor=#0e8088;fontColor=#050505;" parent="1" vertex="1">
                    <mxGeometry x="687.8399999999999" y="300" width="40" height="40" as="geometry"/>
                </mxCell>
                <mxCell id="105" style="edgeStyle=none;html=1;fontSize=12;entryX=0.5;entryY=0;entryDx=0;entryDy=0;" parent="1" source="112" target="115" edge="1">
                    <mxGeometry relative="1" as="geometry">
                        <mxPoint x="439" y="588.5" as="sourcePoint"/>
                    </mxGeometry>
                </mxCell>
                <mxCell id="106" value="isTrue«${indexPlateResult.have_plate}==true»" style="edgeLabel;align=center;verticalAlign=middle;resizable=0;points=[];fontSize=12;" parent="105" vertex="1" connectable="0">
                    <mxGeometry x="0.1645" y="-2" relative="1" as="geometry">
                        <mxPoint x="-6" y="-13" as="offset"/>
                    </mxGeometry>
                </mxCell>
                <mxCell id="125" style="edgeStyle=none;html=1;fontSize=12;entryX=0;entryY=0.5;entryDx=0;entryDy=0;" parent="1" source="112" target="137" edge="1">
                    <mxGeometry relative="1" as="geometry">
                        <Array as="points">
                            <mxPoint x="340" y="464.5"/>
                            <mxPoint x="340" y="828.5"/>
                        </Array>
                        <mxPoint x="410" y="824.5" as="targetPoint"/>
                    </mxGeometry>
                </mxCell>
                <mxCell id="126" value="isTrue«${indexPlateResult.have_plate}==false»" style="edgeLabel;align=center;verticalAlign=middle;resizable=0;points=[];fontSize=12;" parent="125" vertex="1" connectable="0">
                    <mxGeometry x="0.0209" y="-1" relative="1" as="geometry">
                        <mxPoint as="offset"/>
                    </mxGeometry>
                </mxCell>
                <mxCell id="112" value="" style="ellipse;whiteSpace=wrap;html=1;fillColor=#b0e3e6;strokeColor=#0e8088;fontColor=#050505;" parent="1" vertex="1">
                    <mxGeometry x="687.8399999999999" y="444.5" width="40" height="40" as="geometry"/>
                </mxCell>
                <mxCell id="117" style="edgeStyle=none;html=1;fontSize=12;" parent="1" source="115" target="86" edge="1">
                    <mxGeometry relative="1" as="geometry">
                        <Array as="points">
                            <mxPoint x="708" y="594.5"/>
                            <mxPoint x="820" y="594.5"/>
                        </Array>
                    </mxGeometry>
                </mxCell>
                <mxCell id="135" style="edgeStyle=none;html=1;entryX=0.5;entryY=0;entryDx=0;entryDy=0;" parent="1" source="115" target="84" edge="1">
                    <mxGeometry relative="1" as="geometry">
                        <Array as="points">
                            <mxPoint x="708" y="594.5"/>
                            <mxPoint x="524" y="594.5"/>
                        </Array>
                    </mxGeometry>
                </mxCell>
                <mxCell id="149" style="edgeStyle=none;html=1;entryX=0.5;entryY=0;entryDx=0;entryDy=0;" parent="1" source="115" target="148" edge="1">
                    <mxGeometry relative="1" as="geometry">
                        <Array as="points">
                            <mxPoint x="1085" y="545"/>
                        </Array>
                    </mxGeometry>
                </mxCell>
                <mxCell id="155" style="edgeStyle=none;html=1;entryX=0.5;entryY=0;entryDx=0;entryDy=0;" parent="1" source="115" target="154" edge="1">
                    <mxGeometry relative="1" as="geometry">
                        <Array as="points">
                            <mxPoint x="1345" y="545"/>
                        </Array>
                    </mxGeometry>
                </mxCell>
                <mxCell id="171" style="edgeStyle=none;html=1;entryX=0.5;entryY=0;entryDx=0;entryDy=0;" parent="1" source="115" target="159" edge="1">
                    <mxGeometry relative="1" as="geometry">
                        <Array as="points">
                            <mxPoint x="1640" y="545"/>
                        </Array>
                    </mxGeometry>
                </mxCell>
                <mxCell id="172" style="edgeStyle=none;html=1;entryX=0.5;entryY=0;entryDx=0;entryDy=0;" parent="1" source="115" target="166" edge="1">
                    <mxGeometry relative="1" as="geometry">
                        <Array as="points">
                            <mxPoint x="1940" y="545"/>
                        </Array>
                    </mxGeometry>
                </mxCell>
                <mxCell id="115" value="" style="ellipse;whiteSpace=wrap;html=1;fillColor=#b0e3e6;strokeColor=#0e8088;fontColor=#050505;" parent="1" vertex="1">
                    <mxGeometry x="687.8399999999999" y="524.5" width="40" height="40" as="geometry"/>
                </mxCell>
                <mxCell id="134" style="edgeStyle=none;html=1;" parent="1" source="133" target="5" edge="1">
                    <mxGeometry relative="1" as="geometry"/>
                </mxCell>
                <mxCell id="133" value="set«&quot;args.use_plate&quot;;false»" style="rounded=1;whiteSpace=wrap;fillColor=#cce5ff;strokeColor=#36393d;fontColor=#000000;" parent="1" vertex="1">
                    <mxGeometry x="463.93000000000006" y="974.5" width="232.13" height="40" as="geometry"/>
                </mxCell>
                <mxCell id="138" style="edgeStyle=none;html=1;entryX=0.5;entryY=0;entryDx=0;entryDy=0;" parent="1" source="136" target="137" edge="1">
                    <mxGeometry relative="1" as="geometry"/>
                </mxCell>
                <mxCell id="136" value="" style="ellipse;whiteSpace=wrap;html=1;fillColor=#CDEB8B;strokeColor=#0e8088;fontColor=#050505;" parent="1" vertex="1">
                    <mxGeometry x="560.56" y="738.5" width="40" height="40" as="geometry"/>
                </mxCell>
                <mxCell id="144" style="edgeStyle=none;html=1;" parent="1" source="137" target="16" edge="1">
                    <mxGeometry relative="1" as="geometry"/>
                </mxCell>
                <mxCell id="137" value="" style="ellipse;whiteSpace=wrap;html=1;fillColor=#b0e3e6;strokeColor=#0e8088;fontColor=#050505;" parent="1" vertex="1">
                    <mxGeometry x="559.9999999999999" y="808.5" width="40" height="40" as="geometry"/>
                </mxCell>
                <mxCell id="145" value="ok" style="ellipse;whiteSpace=wrap;html=1;fillColor=#b0e3e6;strokeColor=#0e8088;fontColor=#050505;" parent="1" vertex="1">
                    <mxGeometry x="1065" y="10" width="40" height="40" as="geometry"/>
                </mxCell>
                <mxCell id="150" style="edgeStyle=none;html=1;entryX=1;entryY=0.5;entryDx=0;entryDy=0;" parent="1" source="148" target="136" edge="1">
                    <mxGeometry relative="1" as="geometry">
                        <Array as="points">
                            <mxPoint x="1085" y="759"/>
                        </Array>
                    </mxGeometry>
                </mxCell>
                <mxCell id="148" value="postgres«&quot;execute&quot;;&#10;&quot;args.db&quot;;&quot;indexPlateResult.plates&quot;;&#10;&quot;srv/wideSight/sql/writes/vehicle.sql&quot;»" style="rounded=1;whiteSpace=wrap;fillColor=#ffff88;strokeColor=#36393d;fontColor=#000000;" parent="1" vertex="1">
                    <mxGeometry x="960" y="614.5" width="250" height="57.14" as="geometry"/>
                </mxCell>
                <mxCell id="156" style="edgeStyle=none;html=1;entryX=0.75;entryY=0.537;entryDx=0;entryDy=0;entryPerimeter=0;" parent="1" source="154" target="136" edge="1">
                    <mxGeometry relative="1" as="geometry">
                        <Array as="points">
                            <mxPoint x="1345" y="760"/>
                        </Array>
                    </mxGeometry>
                </mxCell>
                <mxCell id="154" value="postgres«&quot;execute&quot;;&#10;&quot;args.db&quot;;&quot;indexPlateResult.plates&quot;;&#10;&quot;srv/wideSight/sql/writes/plate.sql&quot;»" style="rounded=1;whiteSpace=wrap;fillColor=#ffff88;strokeColor=#36393d;fontColor=#000000;" parent="1" vertex="1">
                    <mxGeometry x="1220" y="614.5" width="250" height="57.14" as="geometry"/>
                </mxCell>
                <mxCell id="157" style="edgeStyle=none;html=1;" parent="1" source="159" target="161" edge="1">
                    <mxGeometry relative="1" as="geometry"/>
                </mxCell>
                <mxCell id="158" value="multiple«&quot;minio_plate&quot;;&quot;b.localFiles.plate_bytes&quot;;&quot;index.j&quot;»" style="edgeLabel;align=center;verticalAlign=middle;resizable=0;points=[];fontSize=12;" parent="157" vertex="1" connectable="0">
                    <mxGeometry x="-0.2142" y="-1" relative="1" as="geometry">
                        <mxPoint x="1" y="1" as="offset"/>
                    </mxGeometry>
                </mxCell>
                <mxCell id="159" value="" style="ellipse;whiteSpace=wrap;html=1;fillColor=#b0e3e6;strokeColor=#0e8088;fontColor=#050505;" parent="1" vertex="1">
                    <mxGeometry x="1620" y="580" width="40" height="40" as="geometry"/>
                </mxCell>
                <mxCell id="162" style="edgeStyle=none;html=1;" parent="1" source="161" target="136" edge="1">
                    <mxGeometry relative="1" as="geometry">
                        <Array as="points">
                            <mxPoint x="1640" y="760"/>
                        </Array>
                    </mxGeometry>
                </mxCell>
                <mxCell id="163" value="multipleDone«&quot;b.localFiles.plate_bytes&quot;»" style="edgeLabel;align=center;verticalAlign=middle;resizable=0;points=[];fontSize=12;" parent="162" vertex="1" connectable="0">
                    <mxGeometry x="-0.8059" relative="1" as="geometry">
                        <mxPoint x="67" y="-30" as="offset"/>
                    </mxGeometry>
                </mxCell>
                <mxCell id="161" value="" style="ellipse;whiteSpace=wrap;html=1;fillColor=#b0e3e6;strokeColor=#0e8088;fontColor=#050505;" parent="1" vertex="1">
                    <mxGeometry x="1620" y="671.64" width="40" height="40" as="geometry"/>
                </mxCell>
                <mxCell id="164" style="edgeStyle=none;html=1;" parent="1" source="166" target="167" edge="1">
                    <mxGeometry relative="1" as="geometry"/>
                </mxCell>
                <mxCell id="165" value="multiple«&quot;minio_car&quot;;&quot;b.localFiles.car_bytes&quot;;&quot;index.k&quot;»" style="edgeLabel;align=center;verticalAlign=middle;resizable=0;points=[];fontSize=12;" parent="164" vertex="1" connectable="0">
                    <mxGeometry x="-0.2142" y="-1" relative="1" as="geometry">
                        <mxPoint x="1" y="1" as="offset"/>
                    </mxGeometry>
                </mxCell>
                <mxCell id="166" value="" style="ellipse;whiteSpace=wrap;html=1;fillColor=#b0e3e6;strokeColor=#0e8088;fontColor=#050505;" parent="1" vertex="1">
                    <mxGeometry x="1920" y="580" width="40" height="40" as="geometry"/>
                </mxCell>
                <mxCell id="168" style="edgeStyle=none;html=1;" parent="1" source="167" target="136" edge="1">
                    <mxGeometry relative="1" as="geometry">
                        <Array as="points">
                            <mxPoint x="1940" y="759"/>
                        </Array>
                    </mxGeometry>
                </mxCell>
                <mxCell id="170" value="multipleDone«&quot;b.localFiles.car_bytes&quot;»" style="edgeLabel;align=center;verticalAlign=middle;resizable=0;points=[];fontSize=12;" parent="168" vertex="1" connectable="0">
                    <mxGeometry x="-0.9554" y="-2" relative="1" as="geometry">
                        <mxPoint y="-13" as="offset"/>
                    </mxGeometry>
                </mxCell>
                <mxCell id="167" value="" style="ellipse;whiteSpace=wrap;html=1;fillColor=#b0e3e6;strokeColor=#0e8088;fontColor=#050505;" parent="1" vertex="1">
                    <mxGeometry x="1920" y="671.64" width="40" height="40" as="geometry"/>
                </mxCell>
            </root>
        </mxGraphModel>
    </diagram>
</mxfile>